<svg width="360" height="360" viewBox="0 0 360 360" fill="none" xmlns="http://www.w3.org/2000/svg">
<g clip-path="url(#clip0_126_210)">
<path opacity="0.946" fill-rule="evenodd" clip-rule="evenodd" d="M44.4362 153.89C55.099 153.867 65.7619 153.89 76.4247 153.96C78.0106 154.39 79.0537 155.393 79.554 156.97C79.9451 159.079 79.3192 160.782 77.6764 162.08C77.2929 162.203 76.922 162.343 76.5637 162.5C73.0906 162.676 69.6136 162.769 66.1327 162.78C65.5287 162.921 65.0882 163.271 64.8114 163.83C64.7651 169.43 64.7187 175.03 64.6724 180.63C63.8782 183.458 62.0471 184.578 59.1787 183.99C57.747 183.552 56.7965 182.619 56.3275 181.19C56.1477 175.407 56.0549 169.621 56.0494 163.83C55.7862 163.332 55.3922 162.982 54.8672 162.78C51.7147 162.733 48.5623 162.687 45.4097 162.64C43.7577 162.604 42.5292 161.881 41.7241 160.47C40.97 158.66 41.1091 156.934 42.1413 155.29C42.7903 154.61 43.5552 154.143 44.4362 153.89Z" fill="#69BEE6"/>
<path opacity="0.946" fill-rule="evenodd" clip-rule="evenodd" d="M28.1637 164.11C32.1489 163.72 35.4869 164.98 38.1775 167.89C38.6629 168.542 39.1961 169.149 39.7769 169.71C42.0632 173.059 44.4738 176.325 47.0091 179.51C49.8848 183.804 52.8982 188.004 56.0494 192.11C57.0883 193.016 58.0849 193.972 59.0396 194.98C60.1241 195.841 61.1905 195.818 62.2384 194.91C63.3429 193.903 64.386 192.829 65.3678 191.69C70.6842 184.214 76.1084 176.794 81.6402 169.43C82.5938 168.33 83.5906 167.28 84.6304 166.28C88.1786 163.924 91.9801 163.457 96.035 164.88C96.9376 165.23 97.7721 165.697 98.5384 166.28C99.3961 167.143 100.254 168.007 101.111 168.87C106.339 176.114 111.694 183.254 117.175 190.29C117.901 191.518 118.434 192.824 118.775 194.21C118.893 195.524 118.847 196.831 118.636 198.13C118.237 199 117.773 199.84 117.245 200.65C116.448 201.3 115.729 202.023 115.089 202.82C114.437 203.198 113.788 203.571 113.142 203.94C111.907 204.37 110.655 204.697 109.387 204.92C103.313 205.013 97.2404 205.013 91.1672 204.92C88.6854 204.144 87.5959 202.441 87.8988 199.81C88.3288 197.931 89.4647 196.741 91.3063 196.24C96.545 196.193 101.784 196.147 107.022 196.1C108.727 196.002 109.26 195.139 108.622 193.51C103.845 187.302 99.0697 181.095 94.2965 174.89C93.7388 174.515 93.1825 174.141 92.6275 173.77C91.4674 173.441 90.4243 173.651 89.4982 174.4C88.8723 175.03 88.2465 175.66 87.6206 176.29C86.2241 178.301 84.787 180.308 83.3091 182.31C79.246 187.563 75.3053 192.883 71.4873 198.27C70.1713 199.875 68.7574 201.392 67.2453 202.82C66.2403 203.489 65.1742 204.049 64.0465 204.5C61.7284 204.593 59.4105 204.593 57.0925 204.5C55.8998 204.04 54.7872 203.433 53.7545 202.68C52.7989 201.718 51.8486 200.762 50.9034 199.81C45.0994 192.032 39.3276 184.239 33.5879 176.43C32.8297 175.533 31.9953 174.716 31.0844 173.98C30.1766 173.577 29.2495 173.531 28.3028 173.84C27.8527 174.242 27.366 174.592 26.8425 174.89C22.1573 181.098 17.4285 187.258 12.6563 193.37C11.6911 195.043 12.1779 195.953 14.1166 196.1C19.3553 196.147 24.5939 196.193 29.8327 196.24C33.0427 197.38 34.0395 199.597 32.8229 202.89C32.1222 203.93 31.1719 204.607 29.9718 204.92C23.8985 205.013 17.8255 205.013 11.7522 204.92C9.63582 204.643 7.68869 203.897 5.91085 202.68C5.14 201.928 4.39824 201.158 3.68557 200.37C3.42273 199.832 3.12139 199.319 2.78154 198.83C2.65355 198.466 2.56082 198.093 2.50338 197.71C2.41066 196.45 2.41066 195.19 2.50338 193.93C2.73997 192.853 3.11086 191.826 3.61603 190.85C9.22094 183.399 14.8305 175.932 20.4448 168.45C21.3945 167.634 22.2986 166.771 23.1568 165.86C24.725 164.93 26.3939 164.347 28.1637 164.11Z" fill="#69BEE6"/>
<path d="M162.02 170.164H159.816L158.366 170.338L158.424 171.092L156.916 173.296L155.466 174.688L154.016 177.24L152.276 179.85L151.174 180.778L151.406 180.024L152.74 177.53L154.364 174.92L155.06 173.064L153.436 175.558L152.102 178.168L150.536 180.372L149.318 182.576L148.796 181.126L148.854 179.908L149.724 177.356L149.144 178.4L149.782 175.964L148.796 177.066L148.332 176.602L149.26 174.05L150.188 171.498L150.304 171.266L148.042 171.15L145.026 171.208L144.272 170.686L147.404 170.222L150.246 170.338L150.71 169.932L148.216 169.816L145.432 170.048L142.822 170.686L143.518 169.12L145.316 168.134L144.504 168.25L147.172 166.974L145.49 166.742L146.65 165.814L149.55 165.408L151.928 164.48L154.596 163.784H155.176L155.234 162.74L156.162 160.884L156.452 159.318L158.424 156.592L157.902 156.302L159.642 154.156L160.918 152.648L162.484 150.966L164.166 148.646L166.37 146.326L168.574 144.296L170.604 142.614L171.822 141.86L170.778 143.078L169.038 144.992L167.008 147.08L164.63 149.632L163.354 151.662L164.398 150.56L166.428 148.24L168.226 146.268L170.256 144.18L172.402 142.266L174.548 140.41L173.968 141.744L173.272 143.426L173.04 144.064L171.764 145.63V145.746L172.286 145.224L171.88 146.152L171.996 146.79L171.88 147.254L172.692 146.442L172.17 148.008L172.054 148.066L171.88 150.154L171.764 152.996L172.518 150.27L172.982 150.096L172.808 152.648L172.576 155.548L172.692 158.042L172.518 161.116L172.46 162.624H174.084L175.592 162.566L173.736 163.32L172.402 163.436V163.494L172.344 163.842L174.026 163.726L176.752 163.146L176.578 163.784L176.056 164.828L173.736 165.698L173.91 165.93L173.504 166.278L171.242 166.916L171.184 167.032L173.446 167.09L172.75 167.844L170.662 168.134L170.314 168.83L169.444 170.106L169.212 170.628L169.154 171.034L168.806 172.948L169.212 173.644L168.516 176.428L167.588 178.458L166.95 180.836L165.732 183.388L164.688 185.708L164.05 186.752L164.224 185.186L165.094 182.634L166.37 179.328L166.428 177.878L165.616 180.604L164.456 183.272L163.586 185.476L163.296 188.434L162.658 188.376L161.73 187.158L162.078 183.91L161.614 185.128L161.498 183.736L161.846 181.416L160.628 184.316L160.512 182.228L161.324 179.56L161.44 176.95V174.398L162.252 171.15L162.774 170.048L162.02 170.164ZM171.706 148.53L171.532 150.444L172.054 148.124L171.706 148.53ZM167.82 154.214L167.53 155.954L167.646 158.332L168.11 154.91L168.516 152.706L167.82 154.214ZM163.296 161.464L162.252 162.624L163.818 162.566L165.094 162.682L164.92 162.624L165.442 159.608L165.906 158.1L165.036 159.434L163.296 161.464ZM174.252 149.864L171.816 150.038L174.774 148.704L176.978 147.312L179.24 146.674L179.994 146.616L180.226 146.268L182.372 145.688L184.402 145.05L184.808 144.064L184.634 144.934L185.388 144.818L185.678 143.542L185.968 142.614L186.49 143.078L187.07 144.412L187.012 144.586H188.404L190.84 144.47L193.45 144.354L196.292 144.702L196.698 145.108L193.45 145.224L190.318 145.456L188.578 146.036L191.652 145.746L194.552 145.34L197.742 145.572L198.032 145.862L197.8 147.138L194.9 147.486L196.64 147.66L194.204 148.356L194.378 148.82L194.958 149.342L192.522 150.038L189.796 150.966L187.244 151.836L186.49 154.504L186.026 156.824L185.33 160.42L184.75 162.914L183.938 165.35L182.662 167.96V168.018L182.372 168.714L182.082 169.758L182.256 171.266L181.85 173.296L180.922 176.37L179.82 177.878L178.66 180.952L177.616 183.098L176.63 185.766L175.934 187.274L176.224 185.012L176.978 182.46L178.428 179.27L178.95 177.24L178.37 178.226L177.268 180.894L176.282 183.446L175.412 186.23L174.89 188.898L174.252 188.55L173.556 187.216L174.02 184.026L173.788 183.794L173.614 183.91L173.962 180.894L173.44 181.358L172.512 183.678L172.744 180.894L173.614 178.052L174.136 175.152L174.426 172.658L175.006 170.164L175.122 169.816L175.238 168.946L175.992 166.568L176.862 164.596L176.92 163.378L177.094 162.392L178.254 159.318L179.066 157.23L179.994 155.954L180.748 153.46L179.53 154.098L177.906 153.808L174.774 154.214L172.686 154.156L173.092 153.692L176.572 153.286L177.384 152.706L174.426 152.996L171.7 153.518L170.54 153.054L171.642 151.72L171.7 151.43L174.252 149.864ZM181.328 154.504L180.922 156.36L180.98 157.056L181.966 154.04L182.488 152.59L182.024 152.822L181.328 154.504ZM199.868 170.164H197.664L196.214 170.338L196.272 171.092L194.764 173.296L193.314 174.688L191.864 177.24L190.124 179.85L189.022 180.778L189.254 180.024L190.588 177.53L192.212 174.92L192.908 173.064L191.284 175.558L189.95 178.168L188.384 180.372L187.166 182.576L186.644 181.126L186.702 179.908L187.572 177.356L186.992 178.4L187.63 175.964L186.644 177.066L186.18 176.602L187.108 174.05L188.036 171.498L188.152 171.266L185.89 171.15L182.874 171.208L182.12 170.686L185.252 170.222L188.094 170.338L188.558 169.932L186.064 169.816L183.28 170.048L180.67 170.686L181.366 169.12L183.164 168.134L182.352 168.25L185.02 166.974L183.338 166.742L184.498 165.814L187.398 165.408L189.776 164.48L192.444 163.784H193.024L193.082 162.74L194.01 160.884L194.3 159.318L196.272 156.592L195.75 156.302L197.49 154.156L198.766 152.648L200.332 150.966L202.014 148.646L204.218 146.326L206.422 144.296L208.452 142.614L209.67 141.86L208.626 143.078L206.886 144.992L204.856 147.08L202.478 149.632L201.202 151.662L202.246 150.56L204.276 148.24L206.074 146.268L208.104 144.18L210.25 142.266L212.396 140.41L211.816 141.744L211.12 143.426L210.888 144.064L209.612 145.63V145.746L210.134 145.224L209.728 146.152L209.844 146.79L209.728 147.254L210.54 146.442L210.018 148.008L209.902 148.066L209.728 150.154L209.612 152.996L210.366 150.27L210.83 150.096L210.656 152.648L210.424 155.548L210.54 158.042L210.366 161.116L210.308 162.624H211.932L213.44 162.566L211.584 163.32L210.25 163.436V163.494L210.192 163.842L211.874 163.726L214.6 163.146L214.426 163.784L213.904 164.828L211.584 165.698L211.758 165.93L211.352 166.278L209.09 166.916L209.032 167.032L211.294 167.09L210.598 167.844L208.51 168.134L208.162 168.83L207.292 170.106L207.06 170.628L207.002 171.034L206.654 172.948L207.06 173.644L206.364 176.428L205.436 178.458L204.798 180.836L203.58 183.388L202.536 185.708L201.898 186.752L202.072 185.186L202.942 182.634L204.218 179.328L204.276 177.878L203.464 180.604L202.304 183.272L201.434 185.476L201.144 188.434L200.506 188.376L199.578 187.158L199.926 183.91L199.462 185.128L199.346 183.736L199.694 181.416L198.476 184.316L198.36 182.228L199.172 179.56L199.288 176.95V174.398L200.1 171.15L200.622 170.048L199.868 170.164ZM209.554 148.53L209.38 150.444L209.902 148.124L209.554 148.53ZM205.668 154.214L205.378 155.954L205.494 158.332L205.958 154.91L206.364 152.706L205.668 154.214ZM201.144 161.464L200.1 162.624L201.666 162.566L202.942 162.682L202.768 162.624L203.29 159.608L203.754 158.1L202.884 159.434L201.144 161.464ZM219.942 164.596L218.376 163.842L219.942 163.32H220L220.058 160.768L221.45 158.912L222.9 156.94L224.524 155.374L224.234 155.026L225.916 153.228L228.468 150.966L230.15 150.038L232.296 148.414L235.138 146.616L237.284 145.398L239.894 143.948L240.938 143.658L241.228 143.774L238.792 145.398L236.646 146.848L233.224 148.878L231.89 150.154L231.426 150.792L233.92 148.936L236.414 147.37L238.908 145.746L241.054 144.47L243.896 142.904L243.258 143.484L243.664 144.354L242.91 145.166L240.416 147.196V147.602L241.924 146.442L240.01 148.24L237.864 150.27L239.952 149.052L241.634 148.24L239.72 150.154L237.284 151.894L235.602 153.518L233.514 155.838L231.832 157.752L230.266 159.376L228.236 161.29L226.322 162.682L228.062 163.204L230.382 163.61L231.484 163.436L233.978 164.074L235.95 165.002L236.646 165.814H236.704H237.4L236.936 166.162L237.168 166.452L238.502 165.524L238.966 165.582L239.662 166.684L238.966 167.38L239.488 167.612L238.966 168.192L239.43 168.656L240.358 170.106L238.328 168.946L238.154 169.12L239.43 170.106L240.532 171.092L239.14 171.846L238.792 171.962L237.052 171.788L236.53 172.194L237.284 173.064L236.24 172.542L234.964 174.166L233.166 176.544L232.76 176.892L232.702 177.066L232.412 177.24L231.368 178.284L229.686 179.618L229.396 180.43L227.25 182.17L225.452 182.866L222.494 184.954L220.464 186.288L219.014 187.216L217.97 187.506L220.116 185.534L222.958 183.62L224.756 182.054L223.596 182.634L220.986 184.374L219.014 186.114L216.694 187.912L216.462 187.622L216.172 186.404L217.622 184.664L217.1 184.954L217.39 184.084L218.782 182.054L216.462 184.026L217.39 181.996L219.942 179.792L222.146 177.414L223.596 175.616L225.8 173.934L226.322 173.644L226.96 172.6L228.12 171.208L228.874 170.628L227.134 169.874L225.742 168.656L223.538 167.438L220.638 166.046L219.942 165.118L222.842 166.278L225.742 167.612L227.714 168.308L226.148 167.322L223.712 166.22L221.044 165.06L220.116 164.654L219.942 164.828V164.596ZM225.104 163.32L224.988 163.378H225.336L225.104 163.32ZM221.218 163.088L221.044 163.32H221.102H221.624L221.218 163.088ZM259.023 182.576V181.3L258.733 182.75L259.023 182.576ZM240.347 156.534L240.289 155.2L241.043 153.344L242.667 150.966L243.015 150.038L245.219 147.95L247.597 146.384L250.381 145.108L253.049 143.948L252.585 142.904L255.949 142.382L258.617 145.34L259.661 147.602L260.589 148.82L260.937 151.604L261.343 154.504L260.763 156.708L260.067 160.304L259.081 163.03L258.327 164.306L257.573 165.176L258.501 162.102L259.487 159.144L259.777 156.128L259.545 155.142L259.197 158.68L258.385 161.406L257.457 164.074L256.355 166.974L256.007 166.278L255.369 165.234L255.949 162.682L255.717 162.566L255.543 162.334L255.775 159.202L255.021 160.942L254.383 161.696L254.731 158.738L254.847 156.418L254.325 154.562L253.745 152.59L253.339 149.864L253.281 149.632L252.701 150.096L251.019 151.43L249.917 153.518L249.511 153.924L248.699 155.258L247.713 156.94L247.829 157.52L246.263 160.478L245.509 161.232L245.683 162.508L244.697 164.248L243.943 166.22L244.175 166.974L243.247 169.526L242.203 170.976L241.275 173.818L240.927 175.674L241.043 175.964L240.811 176.718L241.217 178.516L241.623 179.618L242.145 179.328L242.725 180.488L243.073 180.372L244.465 180.72L246.611 179.908L247.829 178.864L249.975 176.196L250.613 175.848L251.657 175.094L249.917 177.53L248.119 179.908L245.741 181.3L244.117 181.822L245.045 181.88L247.249 181.068L248.931 179.444L250.787 176.95L252.353 174.978L252.875 174.05L253.281 174.92L253.745 175.848L252.353 177.994L251.947 179.386L252.991 177.588L251.947 179.908L250.613 182.402L252.817 179.676L253.223 179.908L251.599 182.75L248.467 185.418L245.335 186.868L241.681 187.564L236.461 184.258L235.011 181.242L234.721 177.82L235.649 175.036L235.881 171.962L236.345 168.54L236.751 165.756L237.853 163.262L237.969 163.088H237.853L239.071 160.42L239.941 157.868L240.347 156.534ZM250.265 146.152L247.423 147.892L247.655 148.008L250.555 146.442L253.107 145.108L253.339 145.05L253.455 144.876L253.397 144.644L252.875 144.876L250.265 146.152ZM241.159 170.802L240.579 171.788L239.941 173.934L240.347 173.876L240.405 174.05L240.637 172.832L241.159 170.802ZM254.685 173.818L257.063 172.426L255.787 172.89L257.121 172.078L257.237 171.73L257.295 171.44L256.773 171.498L256.367 170.976L257.585 170.454L257.875 169.468L258.513 166.626L258.861 166.336L259.151 164.944L259.905 162.74L259.615 162.276L260.137 160.42L261.239 156.998L261.993 155.606L260.891 156.244L259.789 156.708L260.543 155.78L262.515 154.33L262.747 153.808L262.399 154.04L260.195 155.316L258.223 157.23L258.281 156.708L258.107 155.432L258.397 154.62L260.311 152.532L258.397 154.156L260.253 152.126L261.239 150.966L258.861 152.358L259.557 151.024L261.935 149.226L264.661 147.602L265.531 147.08L266.459 144.992L266.981 144.528L267.967 143.078L266.923 145.63L266.633 146.442L267.213 146.094L267.503 145.34L268.605 142.614L269.417 140.874L269.707 141.744V143.774V144.528L269.533 145.282L270.635 144.876H274.289L277.653 146.094L279.219 147.544L281.423 150.096L280.959 150.27L281.655 151.198L282.525 154.968L282.873 152.938L282.409 150.328L283.627 153.982L283.163 157.752L282.351 160.652L280.901 163.842L278.987 166.684L276.087 168.946L273.013 170.222L272.317 170.28L270.867 171.15H270.809L272.665 172.136L274.405 173.876L276.435 175.964L278.349 178.226L278.465 179.096L276.261 177.008L273.767 174.572L271.621 173.412L273.825 175.21L275.971 177.182L278.059 179.27L279.045 180.43L277.595 180.662L276.145 179.966L275.797 180.024L274.927 179.792L273.535 179.386L274.869 180.894L272.549 179.734L270.345 178.4L268.025 177.762L265.357 176.66L263.849 175.384L263.501 176.37L263.095 178.98L262.341 180.488L261.703 183.852L260.949 186.404L260.079 189.42L259.615 190L258.861 191.45L259.499 188.782L260.079 186.114L261.065 182.518L261.297 180.604L261.065 180.488L260.427 183.272L259.731 185.94L259.151 188.84L258.455 191.508L258.107 194.118L257.527 193.422L256.947 191.276V190.116L257.063 187.274L256.773 189.884L256.657 187.854L256.831 184.664L256.309 185.998L255.613 188.492L255.555 185.766L256.019 182.808L256.251 180.488L256.193 177.356L256.309 175.906H256.019L256.367 175.674L256.425 174.978L255.845 175.152L253.177 176.138L253.989 174.804L254.685 173.818ZM280.785 150.27L280.611 150.328L281.481 151.72L280.785 150.27ZM278.871 151.314L278.639 151.72L279.219 152.996L278.813 155.722L278.001 157.636L277.189 159.608L278.581 157.172L279.393 154.794L279.335 152.474L278.871 151.314ZM266.575 164.248L265.821 166.104L268.431 165.35L269.301 165.176L269.997 164.886L271.795 163.61L273.245 162.624L273.013 162.218L274.695 160.304L275.855 158.448L277.073 157.346L278.001 155.142L278.349 153.228L278.117 152.416L278.001 152.59L276.261 152.416L275.217 152.01L273.535 151.546L272.781 151.952L271.621 152.184L269.765 152.648L269.301 152.706L269.069 153.46L268.663 155.664L268.141 158.854L267.445 161.522L266.575 164.248ZM264.081 152.996L263.907 153.576L264.313 153.344L264.371 153.286L264.603 152.706L264.081 152.996ZM263.675 154.678L263.327 156.07L263.907 154.562L263.675 154.678ZM276.363 183.272L276.131 182.112L276.885 179.734L277.755 177.472L278.567 174.224L278.799 172.484L279.147 169.99L279.843 167.148L280.655 165.118L281.467 163.088L282.511 160.594L283.091 159.608V159.492L283.265 159.376L283.787 158.564L284.367 158.216L284.599 156.94L284.077 156.476L285.121 153.75L286.339 151.604L287.615 149.922L288.717 147.95L290.341 145.166L291.037 144.354L291.095 144.876L290.109 147.138L288.659 149.922L287.905 151.604L288.601 150.85L289.703 148.878L290.979 146.094L291.965 143.89L292.429 142.614L293.299 143.368L293.589 144.354L293.009 146.906L293.763 145.166L293.183 147.66L293.299 148.762L294.517 146.384L294.285 148.472L293.357 151.256L292.487 153.866L292.139 155.606L291.385 158.1L290.109 160.594L289.007 161.464L288.891 161.812L288.543 163.03L287.963 164.828L287.673 166.974L287.789 167.264L286.745 169.41L286.107 171.092L285.295 173.18L284.541 174.572L283.729 177.24L282.569 180.314L281.583 182.112L280.539 184.432L280.249 185.012L279.611 187.39L279.669 186.23L280.017 183.794L280.829 181.648L282.163 179.038L283.207 175.906L283.555 174.282L283.903 172.658L283.033 175.152L282.105 177.994L281.061 180.43L280.075 182.692L279.321 184.548L278.857 187.332L278.219 189.652L278.393 188.086L277.813 188.144L277.407 186.926V186.23L277.813 182.808L277.697 182.17L277.233 185.128L277.291 183.098L277.813 180.778L278.451 178.574L277.523 180.14L276.363 183.272ZM289.989 174.514L289.699 174.224L291.729 173.064H291.787L292.077 171.904L292.483 169.352L292.541 167.612L293.179 165.002L293.875 162.276L294.455 159.956L294.803 159.028L294.397 157.926L295.673 156.186L296.137 154.678V154.504L296.195 154.562L296.311 154.156L296.137 153.924L296.021 153.982L294.687 154.04L294.571 153.808L296.079 153.286L296.369 152.764L295.615 152.996L292.831 154.272L292.657 154.156L292.251 153.286L293.121 152.358L296.137 150.908H295.441L295.267 150.85L298.051 149.516V149.168L295.035 150.038L296.253 148.936L299.211 147.95L299.501 147.776L299.791 147.428L301.183 145.166L302.633 142.614L303.445 141.744V142.266L302.575 144.586L301.009 147.196L301.647 146.906L302.111 146.094L303.329 143.6L304.373 141.338L305.011 140.178L305.765 140.874L305.939 141.976L305.359 144.47L306.055 142.73L305.591 145.224L305.649 145.572L305.997 145.514L306.867 143.832L306.693 145.456L308.491 145.282L311.159 145.514L315.393 147.196L317.423 150.734L316.959 152.648L316.727 153.518L316.901 154.794L317.075 153.054L317.191 156.186L317.771 155.2L318.525 154.678L318.061 157.694L316.959 160.536L315.741 163.262L314.001 165.756L311.565 167.38L311.507 167.844L309.709 169.526L308.085 170.918L305.997 172.426L306.345 172.89L303.155 174.688L300.719 175.906L298.573 176.254L297.297 176.602L296.775 177.704L295.731 180.314L294.513 182.866L293.643 184.78L292.135 188.202L290.975 190L290.569 190.232L289.583 191.334L291.091 188.782L292.135 186.23L293.063 183.91L294.513 180.72L295.557 178.4L296.021 177.008H295.847L295.673 177.124L295.383 177.762L294.281 180.256L293.237 182.634L292.251 185.128L291.149 187.738L289.815 190L288.655 192.146L288.133 193.596V191.856L287.611 191.566L287.379 191.276L288.191 189.536L289.757 185.94L289.641 185.186L288.539 188.202L288.945 186.81L289.409 185.012L290.279 181.822L289.641 182.924L288.597 185.36L287.843 186.694L288.249 184.316L289.061 181.88L289.989 179.096L290.163 178.748H289.467H288.481L290.395 178.052L290.569 177.588L290.105 177.762L287.437 178.748L286.219 179.212L286.451 178.4L286.625 177.356L289.235 176.196L290.511 175.268L288.365 176.196L290.685 174.862L291.497 174.398V174.282L291.555 174.05L289.989 174.514ZM314.117 154.214L314.001 155.374L312.841 157.404L311.913 159.26L313.595 156.998L314.407 155.084L314.581 154.156L314.117 154.214ZM304.953 150.618V150.734L305.649 150.56L304.953 150.618ZM300.139 164.248L299.733 166.916L300.313 166.278L300.023 168.25V168.482L300.951 167.844L303.213 166.568L305.533 165.35H305.591L306.345 163.378L307.331 163.03L308.607 161.812L308.549 161.116L310.057 159.086L311.565 157.81L312.783 156.07L313.305 154.33L312.725 154.388L312.377 154.272L311.797 152.938L311.565 152.242L311.217 152.01L310.463 151.894L310.289 152.358L307.099 151.952L306.171 152.01L304.605 151.894L303.967 153.982L302.807 156.302L301.357 158.506L301.183 158.622L301.299 159.144L300.603 160.652L300.487 162.856L300.139 164.248ZM297.935 175.326L297.877 175.5L299.095 174.978L297.993 175.21L297.935 175.326ZM296.311 175.674L296.137 176.138L296.311 176.08L296.427 175.616L296.311 175.674ZM314.539 149.864L312.103 150.038L315.061 148.704L317.265 147.312L319.527 146.674L320.281 146.616L320.513 146.268L322.659 145.688L324.689 145.05L325.095 144.064L324.921 144.934L325.675 144.818L325.965 143.542L326.255 142.614L326.777 143.078L327.357 144.412L327.299 144.586H328.691L331.127 144.47L333.737 144.354L336.579 144.702L336.985 145.108L333.737 145.224L330.605 145.456L328.865 146.036L331.939 145.746L334.839 145.34L338.029 145.572L338.319 145.862L338.087 147.138L335.187 147.486L336.927 147.66L334.491 148.356L334.665 148.82L335.245 149.342L332.809 150.038L330.083 150.966L327.531 151.836L326.777 154.504L326.313 156.824L325.617 160.42L325.037 162.914L324.225 165.35L322.949 167.96V168.018L322.659 168.714L322.369 169.758L322.543 171.266L322.137 173.296L321.209 176.37L320.107 177.878L318.947 180.952L317.903 183.098L316.917 185.766L316.221 187.274L316.511 185.012L317.265 182.46L318.715 179.27L319.237 177.24L318.657 178.226L317.555 180.894L316.569 183.446L315.699 186.23L315.177 188.898L314.539 188.55L313.843 187.216L314.307 184.026L314.075 183.794L313.901 183.91L314.249 180.894L313.727 181.358L312.799 183.678L313.031 180.894L313.901 178.052L314.423 175.152L314.713 172.658L315.293 170.164L315.409 169.816L315.525 168.946L316.279 166.568L317.149 164.596L317.207 163.378L317.381 162.392L318.541 159.318L319.353 157.23L320.281 155.954L321.035 153.46L319.817 154.098L318.193 153.808L315.061 154.214L312.973 154.156L313.379 153.692L316.859 153.286L317.671 152.706L314.713 152.996L311.987 153.518L310.827 153.054L311.929 151.72L311.987 151.43L314.539 149.864ZM321.615 154.504L321.209 156.36L321.267 157.056L322.253 154.04L322.775 152.59L322.311 152.822L321.615 154.504ZM326.177 164.596L324.611 163.842L326.177 163.32H326.235L326.293 160.768L327.685 158.912L329.135 156.94L330.759 155.374L330.469 155.026L332.151 153.228L334.703 150.966L336.385 150.038L338.531 148.414L341.373 146.616L343.519 145.398L346.129 143.948L347.173 143.658L347.463 143.774L345.027 145.398L342.881 146.848L339.459 148.878L338.125 150.154L337.661 150.792L340.155 148.936L342.649 147.37L345.143 145.746L347.289 144.47L350.131 142.904L349.493 143.484L349.899 144.354L349.145 145.166L346.651 147.196V147.602L348.159 146.442L346.245 148.24L344.099 150.27L346.187 149.052L347.869 148.24L345.955 150.154L343.519 151.894L341.837 153.518L339.749 155.838L338.067 157.752L336.501 159.376L334.471 161.29L332.557 162.682L334.297 163.204L336.617 163.61L337.719 163.436L340.213 164.074L342.185 165.002L342.881 165.814H342.939H343.635L343.171 166.162L343.403 166.452L344.737 165.524L345.201 165.582L345.897 166.684L345.201 167.38L345.723 167.612L345.201 168.192L345.665 168.656L346.593 170.106L344.563 168.946L344.389 169.12L345.665 170.106L346.767 171.092L345.375 171.846L345.027 171.962L343.287 171.788L342.765 172.194L343.519 173.064L342.475 172.542L341.199 174.166L339.401 176.544L338.995 176.892L338.937 177.066L338.647 177.24L337.603 178.284L335.921 179.618L335.631 180.43L333.485 182.17L331.687 182.866L328.729 184.954L326.699 186.288L325.249 187.216L324.205 187.506L326.351 185.534L329.193 183.62L330.991 182.054L329.831 182.634L327.221 184.374L325.249 186.114L322.929 187.912L322.697 187.622L322.407 186.404L323.857 184.664L323.335 184.954L323.625 184.084L325.017 182.054L322.697 184.026L323.625 181.996L326.177 179.792L328.381 177.414L329.831 175.616L332.035 173.934L332.557 173.644L333.195 172.6L334.355 171.208L335.109 170.628L333.369 169.874L331.977 168.656L329.773 167.438L326.873 166.046L326.177 165.118L329.077 166.278L331.977 167.612L333.949 168.308L332.383 167.322L329.947 166.22L327.279 165.06L326.351 164.654L326.177 164.828V164.596ZM331.339 163.32L331.223 163.378H331.571L331.339 163.32ZM327.453 163.088L327.279 163.32H327.337H327.859L327.453 163.088Z" fill="#69BEE6"/>
<path d="M152.549 214.104L157.499 205.194L158.633 207.264L154.835 214.104H152.549ZM160.343 204.168L165.833 214.104H163.565L159.191 206.22L158.057 204.168L159.191 202.116L160.343 204.168ZM175.985 214.104H174.257V204.744H175.985V214.104ZM180.557 203.88H169.883V202.152H180.557V203.88ZM185.794 214.104L190.744 205.194L191.878 207.264L188.08 214.104H185.794ZM193.588 204.168L199.078 214.104H196.81L192.436 206.22L191.302 204.168L192.436 202.116L193.588 204.168ZM209.76 214.104H207.294V212.394H209.76V214.104ZM224.077 214.104H222.349V204.744H224.077V214.104ZM228.649 203.88H217.975V202.152H228.649V203.88ZM238.774 208.56V212.394H247.63V214.104H237.046V204.744H238.774V206.832H246.46V208.56H238.774ZM237.046 202.152H247.63V203.88H237.046V202.152ZM266.085 209.01C266.355 209.496 266.517 210.072 266.517 210.684C266.517 211.278 266.355 211.854 266.085 212.34C265.491 213.402 264.375 214.104 263.079 214.104C262.935 214.104 262.773 214.104 262.629 214.086C262.485 214.104 262.341 214.104 262.179 214.104H255.843V204.762H257.571V207.228H262.467C263.277 207.084 263.889 206.382 263.889 205.536C263.889 204.726 263.313 204.042 262.557 203.88H255.843V202.116H262.179C263.457 202.116 264.573 202.8 265.167 203.844C265.167 203.844 265.185 203.862 265.185 203.88C265.455 204.366 265.617 204.942 265.617 205.536C265.617 206.148 265.455 206.724 265.185 207.228C265.167 207.228 265.167 207.246 265.167 207.246C265.059 207.426 264.951 207.588 264.825 207.732C265.023 207.84 265.203 207.966 265.365 208.11C265.653 208.362 265.887 208.668 266.085 209.01ZM263.439 212.34C264.213 212.178 264.789 211.494 264.789 210.684C264.789 209.856 264.195 209.154 263.403 209.01H257.571V212.34H263.439ZM276.659 208.56V212.394H285.515V214.104H274.931V204.744H276.659V206.832H284.345V208.56H276.659ZM274.931 202.152H285.515V203.88H274.931V202.152ZM300.425 207.912L304.997 214.104H302.855L299.363 209.37L298.283 207.93V207.912L298.139 207.714L294.035 202.152H296.177L299.201 206.256L299.363 206.472L299.525 206.256L302.531 202.152H304.673L300.587 207.714L300.425 207.912ZM293.729 214.104L297.761 208.65L298.823 210.108L295.871 214.104H293.729ZM315.648 214.104H313.182V212.394H315.648V214.104ZM323.863 214.104H325.591V202.134H323.863V214.104ZM325.537 202.188V214.05H323.917V202.188H325.537ZM323.863 202.134H325.591V214.104H323.863V202.134ZM339.782 203.862C337.424 203.862 335.516 205.788 335.516 208.128C335.516 210.486 337.424 212.394 339.782 212.394C342.122 212.394 344.03 210.486 344.03 208.128C344.03 205.788 342.122 203.862 339.782 203.862ZM333.788 208.128C333.788 204.816 336.47 202.152 339.782 202.152C343.076 202.152 345.758 204.816 345.758 208.128C345.758 211.44 343.076 214.104 339.782 214.104C336.47 214.104 333.788 211.44 333.788 208.128Z" fill="#69BEE6"/>
</g>
<defs>
<clipPath id="clip0_126_210">
<rect width="360" height="68.2086" fill="white" transform="translate(0 145.896)"/>
</clipPath>
</defs>
</svg>
