<svg width="360" height="360" viewBox="0 0 360 360" fill="none" xmlns="http://www.w3.org/2000/svg">
<g clip-path="url(#clip0_126_277)">
<path opacity="0.946" fill-rule="evenodd" clip-rule="evenodd" d="M44.4362 153.89C55.099 153.867 65.7619 153.89 76.4247 153.96C78.0106 154.39 79.0537 155.393 79.554 156.97C79.9451 159.079 79.3192 160.782 77.6764 162.08C77.2929 162.203 76.922 162.343 76.5637 162.5C73.0906 162.676 69.6136 162.769 66.1327 162.78C65.5287 162.921 65.0882 163.271 64.8114 163.83C64.7651 169.43 64.7187 175.03 64.6724 180.63C63.8782 183.458 62.0471 184.578 59.1787 183.99C57.747 183.552 56.7965 182.619 56.3275 181.19C56.1477 175.407 56.0549 169.621 56.0494 163.83C55.7862 163.332 55.3922 162.982 54.8672 162.78C51.7147 162.733 48.5623 162.687 45.4097 162.64C43.7577 162.604 42.5292 161.881 41.7241 160.47C40.97 158.66 41.1091 156.934 42.1413 155.29C42.7903 154.61 43.5552 154.143 44.4362 153.89Z" fill="#F376A9"/>
<path opacity="0.946" fill-rule="evenodd" clip-rule="evenodd" d="M28.164 164.11C32.1492 163.72 35.4871 164.98 38.1778 167.89C38.6632 168.542 39.1964 169.149 39.7772 169.71C42.0634 173.059 44.4741 176.325 47.0094 179.51C49.885 183.804 52.8985 188.004 56.0496 192.11C57.0885 193.016 58.0852 193.972 59.0398 194.98C60.1244 195.841 61.1907 195.818 62.2387 194.91C63.3431 193.903 64.3862 192.829 65.368 191.69C70.6845 184.214 76.1086 176.794 81.6404 169.43C82.5941 168.33 83.5909 167.28 84.6306 166.28C88.1789 163.924 91.9803 163.457 96.0352 164.88C96.9379 165.23 97.7723 165.697 98.5387 166.28C99.3964 167.143 100.254 168.007 101.112 168.87C106.339 176.114 111.694 183.254 117.175 190.29C117.901 191.518 118.434 192.824 118.775 194.21C118.894 195.524 118.847 196.831 118.636 198.13C118.237 199 117.774 199.84 117.245 200.65C116.448 201.3 115.73 202.023 115.089 202.82C114.437 203.198 113.788 203.571 113.142 203.94C111.907 204.37 110.656 204.697 109.387 204.92C103.314 205.013 97.2406 205.013 91.1674 204.92C88.6857 204.144 87.5961 202.441 87.899 199.81C88.3291 197.931 89.4649 196.741 91.3065 196.24C96.5452 196.193 101.784 196.147 107.023 196.1C108.728 196.002 109.261 195.139 108.622 193.51C103.845 187.302 99.07 181.095 94.2967 174.89C93.739 174.515 93.1827 174.141 92.6278 173.77C91.4677 173.441 90.4246 173.651 89.4985 174.4C88.8726 175.03 88.2467 175.66 87.6209 176.29C86.2244 178.301 84.7872 180.308 83.3094 182.31C79.2463 187.563 75.3056 192.883 71.4875 198.27C70.1716 199.875 68.7577 201.392 67.2456 202.82C66.2406 203.489 65.1744 204.049 64.0467 204.5C61.7287 204.593 59.4108 204.593 57.0927 204.5C55.9001 204.04 54.7875 203.433 53.7548 202.68C52.7992 201.718 51.8488 200.762 50.9036 199.81C45.0997 192.032 39.3278 184.239 33.5881 176.43C32.83 175.533 31.9955 174.716 31.0847 173.98C30.1769 173.577 29.2498 173.531 28.3031 173.84C27.853 174.242 27.3662 174.592 26.8427 174.89C22.1575 181.098 17.4288 187.258 12.6565 193.37C11.6914 195.043 12.1781 195.953 14.1168 196.1C19.3556 196.147 24.5942 196.193 29.8329 196.24C33.0429 197.38 34.0397 199.597 32.8232 202.89C32.1225 203.93 31.1721 204.607 29.972 204.92C23.8988 205.013 17.8257 205.013 11.7525 204.92C9.63606 204.643 7.68893 203.897 5.9111 202.68C5.14024 201.928 4.39849 201.158 3.68581 200.37C3.42298 199.832 3.12163 199.319 2.78179 198.83C2.65379 198.466 2.56107 198.093 2.50363 197.71C2.4109 196.45 2.4109 195.19 2.50363 193.93C2.74022 192.853 3.1111 191.826 3.61627 190.85C9.22118 183.399 14.8307 175.932 20.445 168.45C21.3948 167.634 22.2988 166.771 23.1571 165.86C24.7252 164.93 26.3942 164.347 28.164 164.11Z" fill="#F376A9"/>
<path d="M162.02 170.164H159.816L158.366 170.338L158.424 171.092L156.916 173.296L155.466 174.688L154.016 177.24L152.276 179.85L151.174 180.778L151.406 180.024L152.74 177.53L154.364 174.92L155.06 173.064L153.436 175.558L152.102 178.168L150.536 180.372L149.318 182.576L148.796 181.126L148.854 179.908L149.724 177.356L149.144 178.4L149.782 175.964L148.796 177.066L148.332 176.602L149.26 174.05L150.188 171.498L150.304 171.266L148.042 171.15L145.026 171.208L144.272 170.686L147.404 170.222L150.246 170.338L150.71 169.932L148.216 169.816L145.432 170.048L142.822 170.686L143.518 169.12L145.316 168.134L144.504 168.25L147.172 166.974L145.49 166.742L146.65 165.814L149.55 165.408L151.928 164.48L154.596 163.784H155.176L155.234 162.74L156.162 160.884L156.452 159.318L158.424 156.592L157.902 156.302L159.642 154.156L160.918 152.648L162.484 150.966L164.166 148.646L166.37 146.326L168.574 144.296L170.604 142.614L171.822 141.86L170.778 143.078L169.038 144.992L167.008 147.08L164.63 149.632L163.354 151.662L164.398 150.56L166.428 148.24L168.226 146.268L170.256 144.18L172.402 142.266L174.548 140.41L173.968 141.744L173.272 143.426L173.04 144.064L171.764 145.63V145.746L172.286 145.224L171.88 146.152L171.996 146.79L171.88 147.254L172.692 146.442L172.17 148.008L172.054 148.066L171.88 150.154L171.764 152.996L172.518 150.27L172.982 150.096L172.808 152.648L172.576 155.548L172.692 158.042L172.518 161.116L172.46 162.624H174.084L175.592 162.566L173.736 163.32L172.402 163.436V163.494L172.344 163.842L174.026 163.726L176.752 163.146L176.578 163.784L176.056 164.828L173.736 165.698L173.91 165.93L173.504 166.278L171.242 166.916L171.184 167.032L173.446 167.09L172.75 167.844L170.662 168.134L170.314 168.83L169.444 170.106L169.212 170.628L169.154 171.034L168.806 172.948L169.212 173.644L168.516 176.428L167.588 178.458L166.95 180.836L165.732 183.388L164.688 185.708L164.05 186.752L164.224 185.186L165.094 182.634L166.37 179.328L166.428 177.878L165.616 180.604L164.456 183.272L163.586 185.476L163.296 188.434L162.658 188.376L161.73 187.158L162.078 183.91L161.614 185.128L161.498 183.736L161.846 181.416L160.628 184.316L160.512 182.228L161.324 179.56L161.44 176.95V174.398L162.252 171.15L162.774 170.048L162.02 170.164ZM171.706 148.53L171.532 150.444L172.054 148.124L171.706 148.53ZM167.82 154.214L167.53 155.954L167.646 158.332L168.11 154.91L168.516 152.706L167.82 154.214ZM163.296 161.464L162.252 162.624L163.818 162.566L165.094 162.682L164.92 162.624L165.442 159.608L165.906 158.1L165.036 159.434L163.296 161.464ZM174.251 149.864L171.815 150.038L174.773 148.704L176.977 147.312L179.239 146.674L179.993 146.616L180.225 146.268L182.371 145.688L184.401 145.05L184.807 144.064L184.633 144.934L185.387 144.818L185.677 143.542L185.967 142.614L186.489 143.078L187.069 144.412L187.011 144.586H188.403L190.839 144.47L193.449 144.354L196.291 144.702L196.697 145.108L193.449 145.224L190.317 145.456L188.577 146.036L191.651 145.746L194.551 145.34L197.741 145.572L198.031 145.862L197.799 147.138L194.899 147.486L196.639 147.66L194.203 148.356L194.377 148.82L194.957 149.342L192.521 150.038L189.795 150.966L187.243 151.836L186.489 154.504L186.025 156.824L185.329 160.42L184.749 162.914L183.937 165.35L182.661 167.96V168.018L182.371 168.714L182.081 169.758L182.255 171.266L181.849 173.296L180.921 176.37L179.819 177.878L178.659 180.952L177.615 183.098L176.629 185.766L175.933 187.274L176.223 185.012L176.977 182.46L178.427 179.27L178.949 177.24L178.369 178.226L177.267 180.894L176.281 183.446L175.411 186.23L174.889 188.898L174.251 188.55L173.555 187.216L174.019 184.026L173.787 183.794L173.613 183.91L173.961 180.894L173.439 181.358L172.511 183.678L172.743 180.894L173.613 178.052L174.135 175.152L174.425 172.658L175.005 170.164L175.121 169.816L175.237 168.946L175.991 166.568L176.861 164.596L176.919 163.378L177.093 162.392L178.253 159.318L179.065 157.23L179.993 155.954L180.747 153.46L179.529 154.098L177.905 153.808L174.773 154.214L172.685 154.156L173.091 153.692L176.571 153.286L177.383 152.706L174.425 152.996L171.699 153.518L170.539 153.054L171.641 151.72L171.699 151.43L174.251 149.864ZM181.327 154.504L180.921 156.36L180.979 157.056L181.965 154.04L182.487 152.59L182.023 152.822L181.327 154.504ZM199.867 170.164H197.663L196.213 170.338L196.271 171.092L194.763 173.296L193.313 174.688L191.863 177.24L190.123 179.85L189.021 180.778L189.253 180.024L190.587 177.53L192.211 174.92L192.907 173.064L191.283 175.558L189.949 178.168L188.383 180.372L187.165 182.576L186.643 181.126L186.701 179.908L187.571 177.356L186.991 178.4L187.629 175.964L186.643 177.066L186.179 176.602L187.107 174.05L188.035 171.498L188.151 171.266L185.889 171.15L182.873 171.208L182.119 170.686L185.251 170.222L188.093 170.338L188.557 169.932L186.063 169.816L183.279 170.048L180.669 170.686L181.365 169.12L183.163 168.134L182.351 168.25L185.019 166.974L183.337 166.742L184.497 165.814L187.397 165.408L189.775 164.48L192.443 163.784H193.023L193.081 162.74L194.009 160.884L194.299 159.318L196.271 156.592L195.749 156.302L197.489 154.156L198.765 152.648L200.331 150.966L202.013 148.646L204.217 146.326L206.421 144.296L208.451 142.614L209.669 141.86L208.625 143.078L206.885 144.992L204.855 147.08L202.477 149.632L201.201 151.662L202.245 150.56L204.275 148.24L206.073 146.268L208.103 144.18L210.249 142.266L212.395 140.41L211.815 141.744L211.119 143.426L210.887 144.064L209.611 145.63V145.746L210.133 145.224L209.727 146.152L209.843 146.79L209.727 147.254L210.539 146.442L210.017 148.008L209.901 148.066L209.727 150.154L209.611 152.996L210.365 150.27L210.829 150.096L210.655 152.648L210.423 155.548L210.539 158.042L210.365 161.116L210.307 162.624H211.931L213.439 162.566L211.583 163.32L210.249 163.436V163.494L210.191 163.842L211.873 163.726L214.599 163.146L214.425 163.784L213.903 164.828L211.583 165.698L211.757 165.93L211.351 166.278L209.089 166.916L209.031 167.032L211.293 167.09L210.597 167.844L208.509 168.134L208.161 168.83L207.291 170.106L207.059 170.628L207.001 171.034L206.653 172.948L207.059 173.644L206.363 176.428L205.435 178.458L204.797 180.836L203.579 183.388L202.535 185.708L201.897 186.752L202.071 185.186L202.941 182.634L204.217 179.328L204.275 177.878L203.463 180.604L202.303 183.272L201.433 185.476L201.143 188.434L200.505 188.376L199.577 187.158L199.925 183.91L199.461 185.128L199.345 183.736L199.693 181.416L198.475 184.316L198.359 182.228L199.171 179.56L199.287 176.95V174.398L200.099 171.15L200.621 170.048L199.867 170.164ZM209.553 148.53L209.379 150.444L209.901 148.124L209.553 148.53ZM205.667 154.214L205.377 155.954L205.493 158.332L205.957 154.91L206.363 152.706L205.667 154.214ZM201.143 161.464L200.099 162.624L201.665 162.566L202.941 162.682L202.767 162.624L203.289 159.608L203.753 158.1L202.883 159.434L201.143 161.464ZM219.942 164.596L218.376 163.842L219.942 163.32H220L220.058 160.768L221.45 158.912L222.9 156.94L224.524 155.374L224.234 155.026L225.916 153.228L228.468 150.966L230.15 150.038L232.296 148.414L235.138 146.616L237.284 145.398L239.894 143.948L240.938 143.658L241.228 143.774L238.792 145.398L236.646 146.848L233.224 148.878L231.89 150.154L231.426 150.792L233.92 148.936L236.414 147.37L238.908 145.746L241.054 144.47L243.896 142.904L243.258 143.484L243.664 144.354L242.91 145.166L240.416 147.196V147.602L241.924 146.442L240.01 148.24L237.864 150.27L239.952 149.052L241.634 148.24L239.72 150.154L237.284 151.894L235.602 153.518L233.514 155.838L231.832 157.752L230.266 159.376L228.236 161.29L226.322 162.682L228.062 163.204L230.382 163.61L231.484 163.436L233.978 164.074L235.95 165.002L236.646 165.814H236.704H237.4L236.936 166.162L237.168 166.452L238.502 165.524L238.966 165.582L239.662 166.684L238.966 167.38L239.488 167.612L238.966 168.192L239.43 168.656L240.358 170.106L238.328 168.946L238.154 169.12L239.43 170.106L240.532 171.092L239.14 171.846L238.792 171.962L237.052 171.788L236.53 172.194L237.284 173.064L236.24 172.542L234.964 174.166L233.166 176.544L232.76 176.892L232.702 177.066L232.412 177.24L231.368 178.284L229.686 179.618L229.396 180.43L227.25 182.17L225.452 182.866L222.494 184.954L220.464 186.288L219.014 187.216L217.97 187.506L220.116 185.534L222.958 183.62L224.756 182.054L223.596 182.634L220.986 184.374L219.014 186.114L216.694 187.912L216.462 187.622L216.172 186.404L217.622 184.664L217.1 184.954L217.39 184.084L218.782 182.054L216.462 184.026L217.39 181.996L219.942 179.792L222.146 177.414L223.596 175.616L225.8 173.934L226.322 173.644L226.96 172.6L228.12 171.208L228.874 170.628L227.134 169.874L225.742 168.656L223.538 167.438L220.638 166.046L219.942 165.118L222.842 166.278L225.742 167.612L227.714 168.308L226.148 167.322L223.712 166.22L221.044 165.06L220.116 164.654L219.942 164.828V164.596ZM225.104 163.32L224.988 163.378H225.336L225.104 163.32ZM221.218 163.088L221.044 163.32H221.102H221.624L221.218 163.088ZM259.023 182.576V181.3L258.733 182.75L259.023 182.576ZM240.347 156.534L240.289 155.2L241.043 153.344L242.667 150.966L243.015 150.038L245.219 147.95L247.597 146.384L250.381 145.108L253.049 143.948L252.585 142.904L255.949 142.382L258.617 145.34L259.661 147.602L260.589 148.82L260.937 151.604L261.343 154.504L260.763 156.708L260.067 160.304L259.081 163.03L258.327 164.306L257.573 165.176L258.501 162.102L259.487 159.144L259.777 156.128L259.545 155.142L259.197 158.68L258.385 161.406L257.457 164.074L256.355 166.974L256.007 166.278L255.369 165.234L255.949 162.682L255.717 162.566L255.543 162.334L255.775 159.202L255.021 160.942L254.383 161.696L254.731 158.738L254.847 156.418L254.325 154.562L253.745 152.59L253.339 149.864L253.281 149.632L252.701 150.096L251.019 151.43L249.917 153.518L249.511 153.924L248.699 155.258L247.713 156.94L247.829 157.52L246.263 160.478L245.509 161.232L245.683 162.508L244.697 164.248L243.943 166.22L244.175 166.974L243.247 169.526L242.203 170.976L241.275 173.818L240.927 175.674L241.043 175.964L240.811 176.718L241.217 178.516L241.623 179.618L242.145 179.328L242.725 180.488L243.073 180.372L244.465 180.72L246.611 179.908L247.829 178.864L249.975 176.196L250.613 175.848L251.657 175.094L249.917 177.53L248.119 179.908L245.741 181.3L244.117 181.822L245.045 181.88L247.249 181.068L248.931 179.444L250.787 176.95L252.353 174.978L252.875 174.05L253.281 174.92L253.745 175.848L252.353 177.994L251.947 179.386L252.991 177.588L251.947 179.908L250.613 182.402L252.817 179.676L253.223 179.908L251.599 182.75L248.467 185.418L245.335 186.868L241.681 187.564L236.461 184.258L235.011 181.242L234.721 177.82L235.649 175.036L235.881 171.962L236.345 168.54L236.751 165.756L237.853 163.262L237.969 163.088H237.853L239.071 160.42L239.941 157.868L240.347 156.534ZM250.265 146.152L247.423 147.892L247.655 148.008L250.555 146.442L253.107 145.108L253.339 145.05L253.455 144.876L253.397 144.644L252.875 144.876L250.265 146.152ZM241.159 170.802L240.579 171.788L239.941 173.934L240.347 173.876L240.405 174.05L240.637 172.832L241.159 170.802ZM254.684 173.818L257.062 172.426L255.786 172.89L257.12 172.078L257.236 171.73L257.294 171.44L256.772 171.498L256.366 170.976L257.584 170.454L257.874 169.468L258.512 166.626L258.86 166.336L259.15 164.944L259.904 162.74L259.614 162.276L260.136 160.42L261.238 156.998L261.992 155.606L260.89 156.244L259.788 156.708L260.542 155.78L262.514 154.33L262.746 153.808L262.398 154.04L260.194 155.316L258.222 157.23L258.28 156.708L258.106 155.432L258.396 154.62L260.31 152.532L258.396 154.156L260.252 152.126L261.238 150.966L258.86 152.358L259.556 151.024L261.934 149.226L264.66 147.602L265.53 147.08L266.458 144.992L266.98 144.528L267.966 143.078L266.922 145.63L266.632 146.442L267.212 146.094L267.502 145.34L268.604 142.614L269.416 140.874L269.706 141.744V143.774V144.528L269.532 145.282L270.634 144.876H274.288L277.652 146.094L279.218 147.544L281.422 150.096L280.958 150.27L281.654 151.198L282.524 154.968L282.872 152.938L282.408 150.328L283.626 153.982L283.162 157.752L282.35 160.652L280.9 163.842L278.986 166.684L276.086 168.946L273.012 170.222L272.316 170.28L270.866 171.15H270.808L272.664 172.136L274.404 173.876L276.434 175.964L278.348 178.226L278.464 179.096L276.26 177.008L273.766 174.572L271.62 173.412L273.824 175.21L275.97 177.182L278.058 179.27L279.044 180.43L277.594 180.662L276.144 179.966L275.796 180.024L274.926 179.792L273.534 179.386L274.868 180.894L272.548 179.734L270.344 178.4L268.024 177.762L265.356 176.66L263.848 175.384L263.5 176.37L263.094 178.98L262.34 180.488L261.702 183.852L260.948 186.404L260.078 189.42L259.614 190L258.86 191.45L259.498 188.782L260.078 186.114L261.064 182.518L261.296 180.604L261.064 180.488L260.426 183.272L259.73 185.94L259.15 188.84L258.454 191.508L258.106 194.118L257.526 193.422L256.946 191.276V190.116L257.062 187.274L256.772 189.884L256.656 187.854L256.83 184.664L256.308 185.998L255.612 188.492L255.554 185.766L256.018 182.808L256.25 180.488L256.192 177.356L256.308 175.906H256.018L256.366 175.674L256.424 174.978L255.844 175.152L253.176 176.138L253.988 174.804L254.684 173.818ZM280.784 150.27L280.61 150.328L281.48 151.72L280.784 150.27ZM278.87 151.314L278.638 151.72L279.218 152.996L278.812 155.722L278 157.636L277.188 159.608L278.58 157.172L279.392 154.794L279.334 152.474L278.87 151.314ZM266.574 164.248L265.82 166.104L268.43 165.35L269.3 165.176L269.996 164.886L271.794 163.61L273.244 162.624L273.012 162.218L274.694 160.304L275.854 158.448L277.072 157.346L278 155.142L278.348 153.228L278.116 152.416L278 152.59L276.26 152.416L275.216 152.01L273.534 151.546L272.78 151.952L271.62 152.184L269.764 152.648L269.3 152.706L269.068 153.46L268.662 155.664L268.14 158.854L267.444 161.522L266.574 164.248ZM264.08 152.996L263.906 153.576L264.312 153.344L264.37 153.286L264.602 152.706L264.08 152.996ZM263.674 154.678L263.326 156.07L263.906 154.562L263.674 154.678ZM276.363 183.272L276.131 182.112L276.885 179.734L277.755 177.472L278.567 174.224L278.799 172.484L279.147 169.99L279.843 167.148L280.655 165.118L281.467 163.088L282.511 160.594L283.091 159.608V159.492L283.265 159.376L283.787 158.564L284.367 158.216L284.599 156.94L284.077 156.476L285.121 153.75L286.339 151.604L287.615 149.922L288.717 147.95L290.341 145.166L291.037 144.354L291.095 144.876L290.109 147.138L288.659 149.922L287.905 151.604L288.601 150.85L289.703 148.878L290.979 146.094L291.965 143.89L292.429 142.614L293.299 143.368L293.589 144.354L293.009 146.906L293.763 145.166L293.183 147.66L293.299 148.762L294.517 146.384L294.285 148.472L293.357 151.256L292.487 153.866L292.139 155.606L291.385 158.1L290.109 160.594L289.007 161.464L288.891 161.812L288.543 163.03L287.963 164.828L287.673 166.974L287.789 167.264L286.745 169.41L286.107 171.092L285.295 173.18L284.541 174.572L283.729 177.24L282.569 180.314L281.583 182.112L280.539 184.432L280.249 185.012L279.611 187.39L279.669 186.23L280.017 183.794L280.829 181.648L282.163 179.038L283.207 175.906L283.555 174.282L283.903 172.658L283.033 175.152L282.105 177.994L281.061 180.43L280.075 182.692L279.321 184.548L278.857 187.332L278.219 189.652L278.393 188.086L277.813 188.144L277.407 186.926V186.23L277.813 182.808L277.697 182.17L277.233 185.128L277.291 183.098L277.813 180.778L278.451 178.574L277.523 180.14L276.363 183.272ZM289.988 174.514L289.698 174.224L291.728 173.064H291.786L292.076 171.904L292.482 169.352L292.54 167.612L293.178 165.002L293.874 162.276L294.454 159.956L294.802 159.028L294.396 157.926L295.672 156.186L296.136 154.678V154.504L296.194 154.562L296.31 154.156L296.136 153.924L296.02 153.982L294.686 154.04L294.57 153.808L296.078 153.286L296.368 152.764L295.614 152.996L292.83 154.272L292.656 154.156L292.25 153.286L293.12 152.358L296.136 150.908H295.44L295.266 150.85L298.05 149.516V149.168L295.034 150.038L296.252 148.936L299.21 147.95L299.5 147.776L299.79 147.428L301.182 145.166L302.632 142.614L303.444 141.744V142.266L302.574 144.586L301.008 147.196L301.646 146.906L302.11 146.094L303.328 143.6L304.372 141.338L305.01 140.178L305.764 140.874L305.938 141.976L305.358 144.47L306.054 142.73L305.59 145.224L305.648 145.572L305.996 145.514L306.866 143.832L306.692 145.456L308.49 145.282L311.158 145.514L315.392 147.196L317.422 150.734L316.958 152.648L316.726 153.518L316.9 154.794L317.074 153.054L317.19 156.186L317.77 155.2L318.524 154.678L318.06 157.694L316.958 160.536L315.74 163.262L314 165.756L311.564 167.38L311.506 167.844L309.708 169.526L308.084 170.918L305.996 172.426L306.344 172.89L303.154 174.688L300.718 175.906L298.572 176.254L297.296 176.602L296.774 177.704L295.73 180.314L294.512 182.866L293.642 184.78L292.134 188.202L290.974 190L290.568 190.232L289.582 191.334L291.09 188.782L292.134 186.23L293.062 183.91L294.512 180.72L295.556 178.4L296.02 177.008H295.846L295.672 177.124L295.382 177.762L294.28 180.256L293.236 182.634L292.25 185.128L291.148 187.738L289.814 190L288.654 192.146L288.132 193.596V191.856L287.61 191.566L287.378 191.276L288.19 189.536L289.756 185.94L289.64 185.186L288.538 188.202L288.944 186.81L289.408 185.012L290.278 181.822L289.64 182.924L288.596 185.36L287.842 186.694L288.248 184.316L289.06 181.88L289.988 179.096L290.162 178.748H289.466H288.48L290.394 178.052L290.568 177.588L290.104 177.762L287.436 178.748L286.218 179.212L286.45 178.4L286.624 177.356L289.234 176.196L290.51 175.268L288.364 176.196L290.684 174.862L291.496 174.398V174.282L291.554 174.05L289.988 174.514ZM314.116 154.214L314 155.374L312.84 157.404L311.912 159.26L313.594 156.998L314.406 155.084L314.58 154.156L314.116 154.214ZM304.952 150.618V150.734L305.648 150.56L304.952 150.618ZM300.138 164.248L299.732 166.916L300.312 166.278L300.022 168.25V168.482L300.95 167.844L303.212 166.568L305.532 165.35H305.59L306.344 163.378L307.33 163.03L308.606 161.812L308.548 161.116L310.056 159.086L311.564 157.81L312.782 156.07L313.304 154.33L312.724 154.388L312.376 154.272L311.796 152.938L311.564 152.242L311.216 152.01L310.462 151.894L310.288 152.358L307.098 151.952L306.17 152.01L304.604 151.894L303.966 153.982L302.806 156.302L301.356 158.506L301.182 158.622L301.298 159.144L300.602 160.652L300.486 162.856L300.138 164.248ZM297.934 175.326L297.876 175.5L299.094 174.978L297.992 175.21L297.934 175.326ZM296.31 175.674L296.136 176.138L296.31 176.08L296.426 175.616L296.31 175.674ZM314.539 149.864L312.103 150.038L315.061 148.704L317.265 147.312L319.527 146.674L320.281 146.616L320.513 146.268L322.659 145.688L324.689 145.05L325.095 144.064L324.921 144.934L325.675 144.818L325.965 143.542L326.255 142.614L326.777 143.078L327.357 144.412L327.299 144.586H328.691L331.127 144.47L333.737 144.354L336.579 144.702L336.985 145.108L333.737 145.224L330.605 145.456L328.865 146.036L331.939 145.746L334.839 145.34L338.029 145.572L338.319 145.862L338.087 147.138L335.187 147.486L336.927 147.66L334.491 148.356L334.665 148.82L335.245 149.342L332.809 150.038L330.083 150.966L327.531 151.836L326.777 154.504L326.313 156.824L325.617 160.42L325.037 162.914L324.225 165.35L322.949 167.96V168.018L322.659 168.714L322.369 169.758L322.543 171.266L322.137 173.296L321.209 176.37L320.107 177.878L318.947 180.952L317.903 183.098L316.917 185.766L316.221 187.274L316.511 185.012L317.265 182.46L318.715 179.27L319.237 177.24L318.657 178.226L317.555 180.894L316.569 183.446L315.699 186.23L315.177 188.898L314.539 188.55L313.843 187.216L314.307 184.026L314.075 183.794L313.901 183.91L314.249 180.894L313.727 181.358L312.799 183.678L313.031 180.894L313.901 178.052L314.423 175.152L314.713 172.658L315.293 170.164L315.409 169.816L315.525 168.946L316.279 166.568L317.149 164.596L317.207 163.378L317.381 162.392L318.541 159.318L319.353 157.23L320.281 155.954L321.035 153.46L319.817 154.098L318.193 153.808L315.061 154.214L312.973 154.156L313.379 153.692L316.859 153.286L317.671 152.706L314.713 152.996L311.987 153.518L310.827 153.054L311.929 151.72L311.987 151.43L314.539 149.864ZM321.615 154.504L321.209 156.36L321.267 157.056L322.253 154.04L322.775 152.59L322.311 152.822L321.615 154.504ZM326.177 164.596L324.611 163.842L326.177 163.32H326.235L326.293 160.768L327.685 158.912L329.135 156.94L330.759 155.374L330.469 155.026L332.151 153.228L334.703 150.966L336.385 150.038L338.531 148.414L341.373 146.616L343.519 145.398L346.129 143.948L347.173 143.658L347.463 143.774L345.027 145.398L342.881 146.848L339.459 148.878L338.125 150.154L337.661 150.792L340.155 148.936L342.649 147.37L345.143 145.746L347.289 144.47L350.131 142.904L349.493 143.484L349.899 144.354L349.145 145.166L346.651 147.196V147.602L348.159 146.442L346.245 148.24L344.099 150.27L346.187 149.052L347.869 148.24L345.955 150.154L343.519 151.894L341.837 153.518L339.749 155.838L338.067 157.752L336.501 159.376L334.471 161.29L332.557 162.682L334.297 163.204L336.617 163.61L337.719 163.436L340.213 164.074L342.185 165.002L342.881 165.814H342.939H343.635L343.171 166.162L343.403 166.452L344.737 165.524L345.201 165.582L345.897 166.684L345.201 167.38L345.723 167.612L345.201 168.192L345.665 168.656L346.593 170.106L344.563 168.946L344.389 169.12L345.665 170.106L346.767 171.092L345.375 171.846L345.027 171.962L343.287 171.788L342.765 172.194L343.519 173.064L342.475 172.542L341.199 174.166L339.401 176.544L338.995 176.892L338.937 177.066L338.647 177.24L337.603 178.284L335.921 179.618L335.631 180.43L333.485 182.17L331.687 182.866L328.729 184.954L326.699 186.288L325.249 187.216L324.205 187.506L326.351 185.534L329.193 183.62L330.991 182.054L329.831 182.634L327.221 184.374L325.249 186.114L322.929 187.912L322.697 187.622L322.407 186.404L323.857 184.664L323.335 184.954L323.625 184.084L325.017 182.054L322.697 184.026L323.625 181.996L326.177 179.792L328.381 177.414L329.831 175.616L332.035 173.934L332.557 173.644L333.195 172.6L334.355 171.208L335.109 170.628L333.369 169.874L331.977 168.656L329.773 167.438L326.873 166.046L326.177 165.118L329.077 166.278L331.977 167.612L333.949 168.308L332.383 167.322L329.947 166.22L327.279 165.06L326.351 164.654L326.177 164.828V164.596ZM331.339 163.32L331.223 163.378H331.571L331.339 163.32ZM327.453 163.088L327.279 163.32H327.337H327.859L327.453 163.088Z" fill="#F376A9"/>
<path d="M152.548 214.104L157.498 205.194L158.632 207.264L154.834 214.104H152.548ZM160.342 204.168L165.832 214.104H163.564L159.19 206.22L158.056 204.168L159.19 202.116L160.342 204.168ZM175.984 214.104H174.256V204.744H175.984V214.104ZM180.556 203.88H169.882V202.152H180.556V203.88ZM185.794 214.104L190.744 205.194L191.878 207.264L188.08 214.104H185.794ZM193.588 204.168L199.078 214.104H196.81L192.436 206.22L191.302 204.168L192.436 202.116L193.588 204.168ZM209.76 214.104H207.294V212.394H209.76V214.104ZM224.077 214.104H222.349V204.744H224.077V214.104ZM228.649 203.88H217.975V202.152H228.649V203.88ZM238.773 208.56V212.394H247.629V214.104H237.045V204.744H238.773V206.832H246.459V208.56H238.773ZM237.045 202.152H247.629V203.88H237.045V202.152ZM266.085 209.01C266.355 209.496 266.517 210.072 266.517 210.684C266.517 211.278 266.355 211.854 266.085 212.34C265.491 213.402 264.375 214.104 263.079 214.104C262.935 214.104 262.773 214.104 262.629 214.086C262.485 214.104 262.341 214.104 262.179 214.104H255.843V204.762H257.571V207.228H262.467C263.277 207.084 263.889 206.382 263.889 205.536C263.889 204.726 263.313 204.042 262.557 203.88H255.843V202.116H262.179C263.457 202.116 264.573 202.8 265.167 203.844C265.167 203.844 265.185 203.862 265.185 203.88C265.455 204.366 265.617 204.942 265.617 205.536C265.617 206.148 265.455 206.724 265.185 207.228C265.167 207.228 265.167 207.246 265.167 207.246C265.059 207.426 264.951 207.588 264.825 207.732C265.023 207.84 265.203 207.966 265.365 208.11C265.653 208.362 265.887 208.668 266.085 209.01ZM263.439 212.34C264.213 212.178 264.789 211.494 264.789 210.684C264.789 209.856 264.195 209.154 263.403 209.01H257.571V212.34H263.439ZM276.659 208.56V212.394H285.515V214.104H274.931V204.744H276.659V206.832H284.345V208.56H276.659ZM274.931 202.152H285.515V203.88H274.931V202.152ZM300.425 207.912L304.997 214.104H302.855L299.363 209.37L298.283 207.93V207.912L298.139 207.714L294.035 202.152H296.177L299.201 206.256L299.363 206.472L299.525 206.256L302.531 202.152H304.673L300.587 207.714L300.425 207.912ZM293.729 214.104L297.761 208.65L298.823 210.108L295.871 214.104H293.729ZM315.647 214.104H313.181V212.394H315.647V214.104ZM323.863 214.104H325.591V202.134H323.863V214.104ZM325.537 202.188V214.05H323.917V202.188H325.537ZM323.863 202.134H325.591V214.104H323.863V202.134ZM339.782 203.862C337.424 203.862 335.516 205.788 335.516 208.128C335.516 210.486 337.424 212.394 339.782 212.394C342.122 212.394 344.03 210.486 344.03 208.128C344.03 205.788 342.122 203.862 339.782 203.862ZM333.788 208.128C333.788 204.816 336.47 202.152 339.782 202.152C343.076 202.152 345.758 204.816 345.758 208.128C345.758 211.44 343.076 214.104 339.782 214.104C336.47 214.104 333.788 211.44 333.788 208.128Z" fill="#F376A9"/>
</g>
<defs>
<clipPath id="clip0_126_277">
<rect width="360" height="68.2086" fill="white" transform="translate(0 145.896)"/>
</clipPath>
</defs>
</svg>
